<svg width="18" height="15" viewBox="0 0 18 15" fill="none" xmlns="http://www.w3.org/2000/svg">
<path d="M10.7783 0C11.3369 6.26441e-05 11.8137 0.266439 12.1406 0.647461L12.1709 0.683594L12.1963 0.722656L13.2207 2.34375C13.3527 2.48889 13.5045 2.55371 13.6113 2.55371H15.9658C16.4749 2.55376 16.9633 2.75626 17.3232 3.11621C17.6831 3.47619 17.8857 3.96464 17.8857 4.47363V12.1348C17.8857 12.6438 17.6831 13.1322 17.3232 13.4922C16.9633 13.8521 16.4749 14.0546 15.9658 14.0547H1.91992C1.41089 14.0547 0.922484 13.8521 0.5625 13.4922C0.202511 13.1322 1.47011e-05 12.6439 0 12.1348V4.47363C0 3.96452 0.202508 3.47621 0.5625 3.11621C0.803175 2.87556 1.10155 2.70657 1.4248 2.62012V2.14062C1.4248 1.6671 1.80871 1.2832 2.28223 1.2832H3.625C4.09838 1.28337 4.48242 1.66721 4.48242 2.14062V2.49805C4.53563 2.46585 4.596 2.41837 4.66113 2.3457L5.68945 0.722656L5.71387 0.683594L5.74414 0.647461C6.07114 0.266297 6.54866 0 7.10742 0H10.7783ZM7.10742 1.28516C6.98545 1.28516 6.85686 1.3385 6.74121 1.46289L5.71289 3.08887L5.68848 3.12793L5.6582 3.16309C5.36543 3.50485 4.91374 3.83886 4.31348 3.83887H1.91992C1.75175 3.83887 1.58963 3.90552 1.4707 4.02441C1.35178 4.14335 1.28516 4.30544 1.28516 4.47363V12.1348C1.28517 12.3028 1.35199 12.4641 1.4707 12.583C1.58964 12.7019 1.75174 12.7695 1.91992 12.7695H15.9658C16.1339 12.7695 16.2952 12.7019 16.4141 12.583C16.5329 12.4641 16.5996 12.3029 16.5996 12.1348V4.47363C16.5996 4.30545 16.533 4.14335 16.4141 4.02441C16.2952 3.90568 16.1338 3.83892 15.9658 3.83887H13.6113C13.0322 3.83887 12.5388 3.52765 12.2266 3.16309L12.1973 3.12793L12.1719 3.08887L11.1426 1.46191C11.0273 1.33845 10.8998 1.28521 10.7783 1.28516H7.10742ZM8.94238 3.83203C11.0605 3.83204 12.7781 5.5489 12.7783 7.66699C12.7783 9.78524 11.0606 11.5029 8.94238 11.5029C6.8243 11.5027 5.10745 9.78512 5.10742 7.66699C5.10763 5.54901 6.82441 3.83224 8.94238 3.83203ZM8.94238 5.11719C7.53433 5.11739 6.39278 6.25894 6.39258 7.66699C6.39261 9.07519 7.53423 10.2176 8.94238 10.2178C10.3507 10.2178 11.4931 9.07531 11.4932 7.66699C11.493 6.25882 10.3506 5.1172 8.94238 5.11719Z" fill="url(#paint0_linear_2195_18165)"/>
<defs>
<linearGradient id="paint0_linear_2195_18165" x1="17.5638" y1="1.11799" x2="5.48703" y2="7.26358" gradientUnits="userSpaceOnUse">
<stop stop-color="#CDD6DE"/>
<stop offset="1" stop-color="#7FB5F7"/>
</linearGradient>
</defs>
</svg>
