<svg width="33" height="42" viewBox="0 0 33 42" fill="none" xmlns="http://www.w3.org/2000/svg">
<g filter="url(#filter0_d_2094_2735)">
<path d="M15.9361 0C20.5475 0 24.3683 3.22561 23.9788 7.74389C23.6219 11.8798 20.0049 15.2564 15.9361 15.2564C11.8692 15.2564 8.24433 11.8822 7.89341 7.74214C7.50487 3.1523 11.3334 0 15.9361 0ZM15.9361 2.69231C12.4653 2.69231 10.3528 4.90605 10.5734 7.51427C10.8091 10.2949 13.3004 12.5641 15.9361 12.5641C18.5699 12.5641 21.0585 10.2959 21.2988 7.51252C21.5185 4.96353 19.3983 2.69231 15.9361 2.69231Z" fill="url(#paint0_linear_2094_2735)"/>
</g>
<g filter="url(#filter1_d_2094_2735)">
<path d="M26.397 29.2531C26.397 28.6384 26.1321 27.784 25.525 26.7807C24.9303 25.7981 24.0669 24.773 23.0288 23.8421C20.9139 21.9459 18.3077 20.6415 16.0867 20.6415C13.8653 20.6415 11.2593 21.9456 9.14452 23.8413C8.10645 24.7718 7.243 25.7962 6.64836 26.779C6.04133 27.7822 5.77633 28.6372 5.77633 29.2531C5.77633 29.7831 5.97143 30.1806 6.3857 30.5449C6.84392 30.9477 7.57914 31.3076 8.60607 31.5922C10.6601 32.1614 13.4158 32.3082 16.0867 32.3082C18.7572 32.3082 21.5132 32.161 23.5673 31.5913C24.5942 31.3065 25.3293 30.9459 25.7876 30.5431C26.2021 30.1788 26.397 29.7817 26.397 29.2531ZM29.0867 29.2531C29.0867 30.6372 28.4948 31.7463 27.5624 32.5659C26.6738 33.3469 25.5013 33.8482 24.2852 34.1854C21.8532 34.8599 18.7817 35.0005 16.0867 35.0005C13.392 35.0005 10.3202 34.8612 7.88812 34.1872C6.67204 33.8502 5.49972 33.3489 4.61098 32.5676C3.67827 31.7476 3.08667 30.6378 3.08667 29.2531C3.08667 27.9541 3.60751 26.6066 4.34745 25.3837C5.09977 24.1405 6.1447 22.9153 7.34967 21.8352C9.72107 19.7095 12.9425 17.9492 16.0867 17.9492C19.2311 17.9492 22.4525 19.7108 24.8237 21.8369C26.0286 22.9173 27.0736 24.1424 27.8259 25.3855C28.5657 26.608 29.0867 27.9549 29.0867 29.2531Z" fill="url(#paint1_linear_2094_2735)"/>
</g>
<defs>
<filter id="filter0_d_2094_2735" x="4.77962" y="0" width="22.3131" height="21.43" filterUnits="userSpaceOnUse" color-interpolation-filters="sRGB">
<feFlood flood-opacity="0" result="BackgroundImageFix"/>
<feColorMatrix in="SourceAlpha" type="matrix" values="0 0 0 0 0 0 0 0 0 0 0 0 0 0 0 0 0 0 127 0" result="hardAlpha"/>
<feOffset dy="3.08659"/>
<feGaussianBlur stdDeviation="1.5433"/>
<feComposite in2="hardAlpha" operator="out"/>
<feColorMatrix type="matrix" values="0 0 0 0 0.66395 0 0 0 0 0.955193 0 0 0 0 1 0 0 0 0.34 0"/>
<feBlend mode="normal" in2="BackgroundImageFix" result="effect1_dropShadow_2094_2735"/>
<feBlend mode="normal" in="SourceGraphic" in2="effect1_dropShadow_2094_2735" result="shape"/>
</filter>
<filter id="filter1_d_2094_2735" x="7.96318e-05" y="17.9492" width="32.1732" height="23.2249" filterUnits="userSpaceOnUse" color-interpolation-filters="sRGB">
<feFlood flood-opacity="0" result="BackgroundImageFix"/>
<feColorMatrix in="SourceAlpha" type="matrix" values="0 0 0 0 0 0 0 0 0 0 0 0 0 0 0 0 0 0 127 0" result="hardAlpha"/>
<feOffset dy="3.08659"/>
<feGaussianBlur stdDeviation="1.5433"/>
<feComposite in2="hardAlpha" operator="out"/>
<feColorMatrix type="matrix" values="0 0 0 0 0.66395 0 0 0 0 0.955193 0 0 0 0 1 0 0 0 0.34 0"/>
<feBlend mode="normal" in2="BackgroundImageFix" result="effect1_dropShadow_2094_2735"/>
<feBlend mode="normal" in="SourceGraphic" in2="effect1_dropShadow_2094_2735" result="shape"/>
</filter>
<linearGradient id="paint0_linear_2094_2735" x1="23.7157" y1="1.21358" x2="12.0782" y2="6.13664" gradientUnits="userSpaceOnUse">
<stop stop-color="#CDD6DE"/>
<stop offset="1" stop-color="#7FB5F7"/>
</linearGradient>
<linearGradient id="paint1_linear_2094_2735" x1="28.6187" y1="19.3056" x2="12.5069" y2="29.1295" gradientUnits="userSpaceOnUse">
<stop stop-color="#CDD6DE"/>
<stop offset="1" stop-color="#7FB5F7"/>
</linearGradient>
</defs>
</svg>
