<svg width="279" height="99" viewBox="0 0 279 99" fill="none" xmlns="http://www.w3.org/2000/svg">
<path d="M27.0201 35.762C43.3086 35.762 51.4541 41.8079 51.4541 55.2951C51.4541 63.8528 47.525 68.2246 40.8191 71.0152V71.387L55.1914 98.2671H41.9349C38.5521 98.2671 35.4589 96.4083 33.952 93.4685L24.7237 75.4799H18.0154V98.2683C8.06728 98.2671 0 90.4358 0 80.7787V35.762H27.0201ZM121.471 49.5573H131.436V50.8584C131.436 56.2 126.977 60.5314 121.471 60.5314V82.1116C121.471 85.4587 122.908 86.4834 126.836 86.4834C128.562 86.4834 130.38 86.2988 131.722 86.0175V96.2481C129.71 97.1788 126.068 98.1081 120.8 98.1081C110.929 98.1081 105.086 94.9458 105.086 84.4351V60.5314H98.9534V49.5561H105.086V38.2065H121.471V49.5561V49.5573ZM76.1472 48.2537C92.723 48.2537 98.951 57.2761 98.951 72.995V77.088H68.4808C69.439 84.6222 73.846 86.761 82.1846 86.761C88.03 86.761 93.1092 85.3669 96.943 83.8775C96.943 90.7623 91.6952 96.5759 84.6679 97.5004C82.6404 97.767 80.4125 97.921 77.9694 97.921C60.4355 97.921 51.9063 89.3633 51.9063 73.5515V72.3433C51.9063 57.5537 61.3913 48.2537 76.1485 48.2537H76.1472ZM187.676 81.8047C187.676 90.5886 180.341 97.7095 171.291 97.7095V49.7138H187.676V81.8047ZM216.407 79.76H216.693L226.275 49.715H241.605L229.806 82.1838C226.426 91.4862 217.367 97.7107 207.206 97.7107L189.771 49.715H206.826L216.407 79.76ZM165.032 48.9055C166.372 48.9055 167.33 49.0914 167.906 49.2773V58.6959C167.906 60.9228 166.024 62.6837 163.73 62.6727H163.691C159.38 62.6727 155.642 63.6033 152.959 64.9045V97.2729H136.574V49.3702H152.287V55.1385H152.767C155.356 51.5102 159.858 48.9067 165.033 48.9067L165.032 48.9055ZM272.066 48.9055C273.406 48.9055 277.669 49.0914 278.242 49.2773L274.939 63.2291C273.885 63.0432 272.063 62.669 270.723 62.669C266.412 62.669 262.174 62.8305 259.991 67.2805V81.3657C259.991 90.1496 252.655 97.2705 243.606 97.2705V49.369H259.321V55.1373H259.802C262.39 51.509 266.892 48.9055 272.067 48.9055H272.066ZM76.1497 58.669C72.5078 58.669 69.0589 60.7149 68.3867 68.1573H83.3358C83.3358 61.182 80.9417 58.669 76.1497 58.669ZM17.8211 64.9693H24.6235C31.0421 64.9693 33.5352 61.9928 33.5352 56.1327C33.5352 50.2727 30.9468 47.6679 24.3363 47.6679H17.8211V64.9693ZM179.486 32.5812C180.955 32.5641 189.721 32.6289 189.721 36.6473C189.721 40.9396 179.917 46.3497 179.493 46.5832V46.593C179.493 46.593 179.491 46.5906 179.486 46.5881C179.481 46.593 179.48 46.5943 179.478 46.593C179.477 46.5918 179.478 46.5832 179.478 46.5832C179.052 46.3497 169.252 40.9396 169.25 36.6473C169.25 32.6265 178.018 32.5641 179.486 32.5812ZM166.35 4.51244C167.329 1.84167 164.749 -0.7594 162.074 0.205454C154.972 2.76617 142.28 7.67237 140.556 10.6048C138.143 14.7088 135.248 39.817 143.451 38.127C149.636 36.8528 162.408 15.2628 166.349 4.51244H166.35ZM192.621 4.51244C191.642 1.84167 194.222 -0.7594 196.897 0.205454C203.999 2.76617 216.691 7.67237 218.415 10.6048C220.828 14.7088 223.723 39.817 215.52 38.127C209.335 36.8528 196.564 15.2628 192.622 4.51244H192.621Z" fill="url(#paint0_linear_571_3058)"/>
<defs>
<linearGradient id="paint0_linear_571_3058" x1="273.234" y1="7.8168" x2="169.584" y2="125.173" gradientUnits="userSpaceOnUse">
<stop stop-color="#CDD6DE"/>
<stop offset="1" stop-color="#7FB5F7"/>
</linearGradient>
</defs>
</svg>
