<svg width="34" height="34" viewBox="0 0 34 34" fill="none" xmlns="http://www.w3.org/2000/svg">
<path d="M28.7692 0H5.23077C3.84395 0.00151435 2.51436 0.553098 1.53373 1.53373C0.553098 2.51436 0.00151435 3.84395 0 5.23077V28.7692C0.00151435 30.1561 0.553098 31.4856 1.53373 32.4663C2.51436 33.4469 3.84395 33.9985 5.23077 34H28.7692C30.1561 33.9985 31.4856 33.4469 32.4663 32.4663C33.4469 31.4856 33.9985 30.1561 34 28.7692V5.23077C33.9985 3.84395 33.4469 2.51436 32.4663 1.53373C31.4856 0.553098 30.1561 0.00151435 28.7692 0ZM25.8474 11.3025L14.8627 24.3795C14.7422 24.523 14.5923 24.6389 14.4231 24.7195C14.2539 24.8 14.0693 24.8432 13.882 24.8462H13.8599C13.6766 24.8461 13.4954 24.8075 13.328 24.7329C13.1606 24.6582 13.0107 24.5493 12.8881 24.413L8.18043 19.1822C8.06087 19.0554 7.96787 18.906 7.90689 18.7427C7.8459 18.5794 7.81817 18.4056 7.82532 18.2315C7.83246 18.0574 7.87435 17.8864 7.94851 17.7287C8.02267 17.571 8.12761 17.4297 8.25715 17.3131C8.3867 17.1965 8.53825 17.107 8.70289 17.0498C8.86752 16.9926 9.04193 16.9689 9.21585 16.9801C9.38977 16.9913 9.55971 17.0372 9.71566 17.115C9.87162 17.1928 10.0104 17.301 10.124 17.4332L13.8256 21.5459L23.845 9.62053C24.0697 9.36069 24.3877 9.19973 24.7301 9.17244C25.0726 9.14515 25.412 9.25372 25.6751 9.47469C25.9382 9.69566 26.1037 10.0113 26.1359 10.3533C26.1682 10.6953 26.0645 11.0363 25.8474 11.3025Z" fill="url(#paint0_linear_1976_14647)"/>
<defs>
<linearGradient id="paint0_linear_1976_14647" x1="33.388" y1="2.70455" x2="8.47008" y2="12.6687" gradientUnits="userSpaceOnUse">
<stop stop-color="#CDD6DE"/>
<stop offset="1" stop-color="#7FB5F7"/>
</linearGradient>
</defs>
</svg>
