<svg width="24" height="24" viewBox="0 0 24 24" fill="none" xmlns="http://www.w3.org/2000/svg">
<circle cx="12" cy="12" r="12" fill="#76ADFF" fill-opacity="0.2"/>
<path d="M12 5.98828C12.368 5.98846 12.6667 6.28687 12.6667 6.65495V11.332H17.3451C17.7128 11.3326 18.0117 11.6308 18.0117 11.9987C18.0117 12.3666 17.7128 12.6648 17.3451 12.6654H12.6667V17.3437C12.6667 17.7118 12.368 18.0102 12 18.0104C11.6318 18.0104 11.3333 17.7119 11.3333 17.3437V12.6654H6.65625C6.28806 12.6654 5.98828 12.3669 5.98828 11.9987C5.98828 11.6305 6.28806 11.332 6.65625 11.332H11.3333V6.65495C11.3333 6.28676 11.6318 5.98828 12 5.98828Z" fill="#76ADFF"/>
</svg>
