<svg width="159" height="38" viewBox="0 0 159 38" fill="none" xmlns="http://www.w3.org/2000/svg">
<path fill-rule="evenodd" clip-rule="evenodd" d="M15.3896 1.81136C24.6676 1.81136 29.3066 5.25294 29.3066 12.9305C29.3066 17.8018 27.0685 20.2892 23.249 21.8778V22.0897L31.4355 37.3905H23.8848C21.9584 37.3905 20.1965 36.3328 19.3379 34.659L14.082 24.4188H10.2607V37.3905C4.59435 37.3904 3.20151e-05 32.9334 0 27.4364V1.81136H15.3896ZM69.1865 9.66389H74.8633V10.4051C74.8631 13.4454 72.3219 15.911 69.1865 15.911V28.1951C69.1866 30.1004 70.0048 30.6843 72.2422 30.6844C73.225 30.6844 74.2614 30.5786 75.0264 30.4188V36.242C73.8803 36.7715 71.8059 37.3015 68.8047 37.3016C63.183 37.3016 59.8546 35.5015 59.8545 29.5184V15.911H56.3613V9.66389H59.8545V3.20393H69.1865V9.66389ZM43.3711 8.92268C52.8123 8.92268 56.3603 14.0579 56.3604 23.0057V25.3348H39.0049C39.5507 29.6238 42.0606 30.8416 46.8096 30.8416C50.1391 30.8416 53.0324 30.0478 55.2158 29.2C55.2158 33.1192 52.2267 36.4279 48.2246 36.9549C47.0702 37.1066 45.8009 37.1951 44.4092 37.1951C34.4222 37.1951 29.5636 32.3235 29.5635 23.3231V22.6346C29.5635 14.2165 34.966 8.92288 43.3711 8.92268ZM106.896 28.0203C106.896 33.0204 102.718 37.0741 97.5635 37.0741V9.75374H106.896V28.0203ZM123.26 26.8553H123.423L128.881 9.75374H137.612L130.892 28.2352C128.967 33.5305 123.807 37.074 118.02 37.0741L108.088 9.75374H117.803L123.26 26.8553ZM93.998 9.2928C94.7616 9.29281 95.3077 9.39811 95.6357 9.50374V14.8651C95.6357 16.1326 94.5634 17.1354 93.2568 17.1287H93.2344C90.7788 17.1287 88.6497 17.6584 87.1211 18.3992V36.8241H77.7891V9.55647H86.7383V12.8397H87.0127C88.4869 10.7744 91.0511 9.2928 93.998 9.2928ZM154.962 9.2928C155.726 9.2928 158.154 9.3981 158.48 9.50374L156.599 17.4451C155.998 17.3395 154.961 17.1268 154.197 17.1268C151.742 17.1268 149.328 17.2193 148.084 19.7518V27.7694C148.084 32.7693 143.906 36.8229 138.752 36.8231V9.55647H147.703V12.8397H147.977C149.451 10.7744 152.015 9.29286 154.962 9.2928ZM43.373 14.8504C41.2986 14.8504 39.3347 16.0148 38.9521 20.2508H47.4658C47.4657 16.2803 46.1021 14.8504 43.373 14.8504ZM10.1504 18.4373H14.0244C17.6806 18.4373 19.1006 16.7427 19.1006 13.4071C19.1006 10.0715 17.6262 8.58875 13.8613 8.5887H10.1504V18.4373ZM102.23 0.000808461C103.067 -0.00867128 108.06 0.0281264 108.061 2.31526C108.061 4.75843 102.476 7.83879 102.234 7.97151V7.97639C102.234 7.97592 102.232 7.97443 102.23 7.97346C102.228 7.97569 102.227 7.97632 102.227 7.97639V7.97151C101.984 7.83879 96.4004 4.75843 96.4004 2.31526C96.4008 0.0269299 101.394 -0.00866445 102.23 0.000808461Z" fill="url(#paint0_linear_495_1497)"/>
<defs>
<linearGradient id="paint0_linear_495_1497" x1="155.628" y1="2.97424" x2="120.841" y2="61.935" gradientUnits="userSpaceOnUse">
<stop stop-color="#CDD6DE"/>
<stop offset="1" stop-color="#7FB5F7"/>
</linearGradient>
</defs>
</svg>
