<svg width="146" height="146" viewBox="0 0 146 146" fill="none" xmlns="http://www.w3.org/2000/svg">
<path d="M72.9987 146C113.315 146 145.997 113.317 145.997 73C145.997 32.6832 113.315 0 72.9987 0C32.6826 0 0 32.6832 0 73C0 113.317 32.6826 146 72.9987 146Z" fill="url(#paint0_linear_2132_15384)"/>
<mask id="mask0_2132_15384" style="mask-type:alpha" maskUnits="userSpaceOnUse" x="0" y="0" width="146" height="146">
<path d="M72.9987 146C113.315 146 145.997 113.317 145.997 73C145.997 32.6832 113.315 0 72.9987 0C32.6826 0 0 32.6832 0 73C0 113.317 32.6826 146 72.9987 146Z" fill="url(#paint1_linear_2132_15384)"/>
</mask>
<g mask="url(#mask0_2132_15384)">
<path d="M143.288 42.1435C142.876 50.0737 136.077 56.7287 128.636 59.1743C117.68 62.7148 107.03 58.1603 96.6762 53.5276C96.186 53.3097 95.6958 53.0891 95.207 52.8712C95.207 52.8712 97.3411 61.1324 101.491 64.2106C105.639 67.286 112.84 62.1254 117.463 69.9718C120.877 75.7665 119.118 91.4201 106.451 97.5347C106.352 97.585 106.253 97.631 106.153 97.6799C106.15 97.6813 106.146 97.6813 106.144 97.6827C104.627 98.3866 102.956 98.9579 101.122 99.3587L101.129 99.3643C97.4695 100.162 93.3522 100.233 88.8327 99.578C88.2405 99.4914 87.6902 99.9006 87.605 100.494C87.5184 101.086 87.929 101.637 88.5226 101.722C90.6609 102.033 92.7209 102.187 94.693 102.187C94.8299 102.187 94.9654 102.186 95.1008 102.184L115.859 173.538H34.556L46.1943 57.9536C46.2544 57.3586 45.8214 56.8265 45.225 56.7664C44.6273 56.7064 44.0979 57.1421 44.0379 57.7371L40.2041 95.7972C36.4792 96.9104 24.3549 98.7777 16.9121 94.5556C14.8172 93.3657 13.4945 91.1646 13.373 88.7595C11.7906 57.5639 35.901 29.3195 44.9709 26.7049C59.5044 22.5122 63.8969 40.4647 63.8969 40.4647H78.6204C86.1008 33.7036 91.0505 28.4563 100.988 26.1784C112.672 23.332 131.208 24.6183 139.373 32.6309C141.894 35.1854 143.443 38.5276 143.288 42.1435Z" fill="white"/>
<path d="M105.514 70.0848C105.514 70.0848 111.961 69.2089 113.207 72.4056C114.357 75.3576 110.48 79.3423 108.287 81.2908C107.423 82.0587 106.268 82.1865 105.258 81.6258C102.691 80.2037 98.0376 77.1624 98.5151 74.0318C99.0326 70.6401 105.514 70.0848 105.514 70.0848Z" fill="#2F507F"/>
<path d="M72.0004 72.75C74.0062 72.5964 75.4667 70.3102 75.2624 67.6438C75.0582 64.9773 73.2666 62.9403 71.2608 63.0939C69.255 63.2475 67.7945 65.5337 67.9988 68.2001C68.203 70.8666 69.9946 72.9036 72.0004 72.75Z" fill="#2F507F"/>
<path d="M86.4727 71.791C88.4785 71.6374 89.939 69.3512 89.7347 66.6848C89.5305 64.0183 87.7389 61.9813 85.7331 62.1349C83.7273 62.2885 82.2668 64.5747 82.4711 67.2411C82.6753 69.9076 84.4669 71.9446 86.4727 71.791Z" fill="#2F507F"/>
<path d="M65.8203 82.6924C65.8203 82.6924 72.175 90.5304 84.7477 88.5038" stroke="#2F507F" stroke-width="3.40797" stroke-miterlimit="10" stroke-linecap="round"/>
</g>
<defs>
<linearGradient id="paint0_linear_2132_15384" x1="143.369" y1="11.6136" x2="36.3703" y2="54.3994" gradientUnits="userSpaceOnUse">
<stop stop-color="#CDD6DE"/>
<stop offset="1" stop-color="#7FB5F7"/>
</linearGradient>
<linearGradient id="paint1_linear_2132_15384" x1="143.369" y1="11.6136" x2="36.3703" y2="54.3994" gradientUnits="userSpaceOnUse">
<stop stop-color="#CDD6DE"/>
<stop offset="1" stop-color="#7FB5F7"/>
</linearGradient>
</defs>
</svg>
