<svg width="192" height="216" viewBox="0 0 192 216" fill="none" xmlns="http://www.w3.org/2000/svg">
<path d="M95.9982 191.876C149.017 191.876 191.996 148.923 191.996 95.9379C191.996 42.9529 149.017 0 95.9982 0C42.9799 0 0 42.9529 0 95.9379C0 148.923 42.9799 191.876 95.9982 191.876Z" fill="url(#paint0_linear_532_2565)"/>
<mask id="mask0_532_2565" style="mask-type:luminance" maskUnits="userSpaceOnUse" x="0" y="0" width="192" height="192">
<path d="M95.9982 191.876C149.017 191.876 191.996 148.923 191.996 95.9379C191.996 42.9529 149.017 0 95.9982 0C42.9799 0 0 42.9529 0 95.9379C0 148.923 42.9799 191.876 95.9982 191.876Z" fill="white"/>
</mask>
<g mask="url(#mask0_532_2565)">
<path d="M81.9921 67.6373C81.9921 67.6373 78.7725 52.3473 69.3109 52.3473C59.8492 52.3473 51.8215 61.5993 45.6496 70.0294C39.4777 78.4595 18.6985 95.1159 18.9024 102.31C19.1097 109.507 19.3136 110.536 25.4855 114.442C31.6574 118.348 32.4798 116.908 39.4777 122.461C46.472 128.014 53.6737 120.199 58.8193 101.899C58.8193 101.899 38.4057 193.488 43.9625 206.994C52.296 227.254 139.247 206.994 139.247 206.994C139.247 206.994 118.394 129.609 119.175 127.786C119.175 127.786 149.032 129.089 152.888 110.294C156.905 94.712 153.693 92.622 150.157 90.5356L126.812 86.4716L125.54 73.7527C125.54 73.7527 137.803 76.4117 142.896 79.1866C147.985 81.9615 164.645 87.7431 167.885 77.2195C171.126 66.6995 174.019 50.2784 168.926 45.3081C163.833 40.3379 154.811 43.9207 154.811 43.9207C154.811 43.9207 140.463 50.166 126.12 51.6658C111.772 53.1692 107.492 60.686 107.147 67.5074L81.9956 67.6373H81.9921Z" fill="white"/>
<path d="M92.4239 96.7387C94.8542 96.7387 96.8244 94.0967 96.8244 90.8376C96.8244 87.5785 94.8542 84.9365 92.4239 84.9365C89.9936 84.9365 88.0234 87.5785 88.0234 90.8376C88.0234 94.0967 89.9936 96.7387 92.4239 96.7387Z" fill="black"/>
<path d="M114.061 97.09C116.491 97.09 118.461 94.448 118.461 91.1889C118.461 87.9298 116.491 85.2878 114.061 85.2878C111.63 85.2878 109.66 87.9298 109.66 91.1889C109.66 94.448 111.63 97.09 114.061 97.09Z" fill="black"/>
<path d="M134.197 95.0105C134.197 95.0105 147.725 95.1756 148.951 95.8711C150.178 96.5666 149.893 100.992 149.647 101.646C149.401 102.303 147.721 106.194 141.244 106.194C134.766 106.194 133.209 102.303 133.086 100.869C132.963 99.4363 132.784 96.6438 133.497 95.5023C133.719 95.144 134.193 95.0105 134.193 95.0105H134.197Z" fill="black"/>
</g>
<defs>
<linearGradient id="paint0_linear_532_2565" x1="188.541" y1="15.2629" x2="47.8545" y2="71.5554" gradientUnits="userSpaceOnUse">
<stop stop-color="#CDD6DE"/>
<stop offset="1" stop-color="#7FB5F7"/>
</linearGradient>
</defs>
</svg>