<svg width="12" height="12" viewBox="0 0 12 12" fill="none" xmlns="http://www.w3.org/2000/svg">
<path d="M10.5168 0.254501C10.8564 -0.0845933 11.4062 -0.0847612 11.7456 0.254501C12.0847 0.594071 12.0849 1.14501 11.7456 1.48443L7.22832 6.00061L11.7445 10.5168C12.084 10.8564 12.084 11.406 11.7445 11.7456C11.4049 12.0846 10.8551 12.0849 10.5157 11.7456L5.99953 7.22941L1.4845 11.7456C1.14508 12.0849 0.594159 12.0847 0.254568 11.7456C-0.0848164 11.406 -0.0848954 10.8552 0.254568 10.5156L4.7696 5.99947L0.254568 1.48443C-0.0847776 1.14491 -0.0847776 0.594025 0.254568 0.254501C0.594093 -0.0848274 1.14498 -0.0848396 1.4845 0.254501L5.99953 4.77068L10.5168 0.254501Z" fill="#9C9C9C"/>
</svg>
