<svg width="16" height="16" viewBox="0 0 16 16" fill="none" xmlns="http://www.w3.org/2000/svg">
<path d="M12.7523 15.0032H5.75073C5.15387 15.0032 4.58145 14.7661 4.1594 14.3441C3.73735 13.922 3.50024 13.3496 3.50024 12.7527V5.75122C3.50024 5.15436 3.73735 4.58193 4.1594 4.15989C4.58145 3.73784 5.15387 3.50073 5.75073 3.50073H12.7523C13.3491 3.50073 13.9215 3.73784 14.3436 4.15989C14.7656 4.58193 15.0027 5.15436 15.0027 5.75122V12.7527C15.0027 13.3496 14.7656 13.922 14.3436 14.3441C13.9215 14.7661 13.3491 15.0032 12.7523 15.0032Z" fill="#CDD6DE"/>
<path d="M5.0016 2.50081H12.3745C12.2189 2.06236 11.9314 1.68278 11.5515 1.41417C11.1717 1.14555 10.718 1.00105 10.2527 1.00049H3.25122C2.65435 1.00049 2.08193 1.23759 1.65989 1.65964C1.23784 2.08169 1.00073 2.65411 1.00073 3.25098V10.2525C1.00129 10.7177 1.1458 11.1714 1.41441 11.5513C1.68303 11.9312 2.0626 12.2186 2.50106 12.3742V5.00136C2.50106 4.33817 2.76451 3.70215 3.23345 3.23321C3.70239 2.76426 4.33842 2.50081 5.0016 2.50081Z" fill="#CDD6DE"/>
</svg>
