<svg width="26" height="29" viewBox="0 0 26 29" fill="none" xmlns="http://www.w3.org/2000/svg">
<g filter="url(#filter0_d_2572_6241)">
<path d="M11.9999 10.6292V16.175L10.0243 14.2701C9.91082 14.1662 9.75963 14.1089 9.60317 14.1108C9.44672 14.1128 9.29701 14.1735 9.18637 14.2802C9.07577 14.3869 9.01268 14.5313 9.01068 14.6821C9.00871 14.8329 9.06819 14.9783 9.17587 15.0877L12.176 17.9805C12.2885 18.0889 12.441 18.1499 12.6 18.1499C12.759 18.1499 12.9115 18.0889 13.024 17.9805L16.0241 15.0877C16.1318 14.9783 16.1913 14.8329 16.1893 14.6821C16.1873 14.5313 16.1242 14.3869 16.0136 14.2802C15.903 14.1735 15.7533 14.1128 15.5968 14.1108C15.4404 14.1089 15.2892 14.1662 15.1757 14.2701L13.2001 16.175V10.6292H17.0998C17.6566 10.6298 18.1904 10.8435 18.5841 11.2231C18.9778 11.6027 19.1994 12.1174 19.2 12.6543V20.1749C19.1994 20.7118 18.9778 21.2265 18.5841 21.6062C18.1904 21.9857 17.6565 22.1994 17.0998 22.2H8.10022C7.5435 22.1994 7.00957 21.9857 6.61589 21.6062C6.22219 21.2265 6.0006 20.7118 6 20.1749V12.6543C6.0006 12.1174 6.22219 11.6027 6.61589 11.2231C7.00958 10.8435 7.54345 10.6298 8.10022 10.6292H11.9999ZM12.6033 6C12.7625 6.00001 12.9153 6.06091 13.0278 6.16941C13.1403 6.27791 13.2035 6.42522 13.2035 6.57865V10.6288H12.0032V6.57865C12.0032 6.4252 12.0664 6.27792 12.1789 6.16941C12.2914 6.0609 12.4442 6 12.6033 6Z" fill="white"/>
</g>
<defs>
<filter id="filter0_d_2572_6241" x="0" y="0" width="25.2" height="28.2" filterUnits="userSpaceOnUse" color-interpolation-filters="sRGB">
<feFlood flood-opacity="0" result="BackgroundImageFix"/>
<feColorMatrix in="SourceAlpha" type="matrix" values="0 0 0 0 0 0 0 0 0 0 0 0 0 0 0 0 0 0 127 0" result="hardAlpha"/>
<feOffset/>
<feGaussianBlur stdDeviation="3"/>
<feComposite in2="hardAlpha" operator="out"/>
<feColorMatrix type="matrix" values="0 0 0 0 0 0 0 0 0 0 0 0 0 0 0 0 0 0 0.14 0"/>
<feBlend mode="normal" in2="BackgroundImageFix" result="effect1_dropShadow_2572_6241"/>
<feBlend mode="normal" in="SourceGraphic" in2="effect1_dropShadow_2572_6241" result="shape"/>
</filter>
</defs>
</svg>
