<svg width="26" height="26" viewBox="0 0 26 26" fill="none" xmlns="http://www.w3.org/2000/svg">
<g filter="url(#filter0_d_2571_2848)">
<path d="M15.6634 6C16.1264 6.00138 16.5702 6.18596 16.8976 6.51332C17.2249 6.84067 17.4095 7.28453 17.4109 7.74748V8.57665H17.871C18.2368 8.57774 18.5872 8.7235 18.8459 8.98213C19.1045 9.24076 19.2503 9.59125 19.2514 9.957V15.4784C19.2503 15.8442 19.1045 16.1946 18.8459 16.4533C18.5872 16.7119 18.2368 16.8577 17.871 16.8587H17.4109V18.7927C17.4109 19.4594 16.8702 20 16.2036 20H9.04779C8.38111 20 7.84048 19.4594 7.84047 18.7927V16.8587H7.38035C7.01459 16.8577 6.66411 16.7119 6.40548 16.4533C6.14685 16.1946 6.00109 15.8442 6 15.4784V9.957C6.00109 9.59125 6.14685 9.24076 6.40548 8.98213C6.66411 8.7235 7.01459 8.57774 7.38035 8.57665H7.84047V7.74748C7.84185 7.28453 8.02643 6.84067 8.35378 6.51332C8.68114 6.18596 9.125 6.00138 9.58795 6H15.6634ZM9.04779 12.8222C8.78749 12.8222 8.57666 13.033 8.57665 13.2933V18.7927C8.57666 19.053 8.78749 19.2638 9.04779 19.2638H16.2036C16.4639 19.2638 16.6747 19.053 16.6747 18.7927V13.2933C16.6747 13.033 16.4639 12.8222 16.2036 12.8222H9.04779ZM17.3227 9.67901C16.8632 9.6791 16.4907 10.0516 16.4907 10.5111C16.4907 10.9706 16.8632 11.3435 17.3227 11.3436C17.7823 11.3436 18.1552 10.9707 18.1552 10.5111C18.1551 10.0515 17.7823 9.67901 17.3227 9.67901ZM9.4897 6.74146C9.25803 6.76513 9.04039 6.86772 8.87429 7.03382C8.68442 7.22369 8.57749 7.48089 8.57665 7.7494V8.57665H16.6747V7.7494C16.6739 7.48089 16.5669 7.22369 16.3771 7.03382C16.211 6.86772 15.9933 6.76513 15.7617 6.74146L15.6615 6.73619H9.58987L9.4897 6.74146Z" fill="white"/>
</g>
<defs>
<filter id="filter0_d_2571_2848" x="0" y="0" width="25.2515" height="26" filterUnits="userSpaceOnUse" color-interpolation-filters="sRGB">
<feFlood flood-opacity="0" result="BackgroundImageFix"/>
<feColorMatrix in="SourceAlpha" type="matrix" values="0 0 0 0 0 0 0 0 0 0 0 0 0 0 0 0 0 0 127 0" result="hardAlpha"/>
<feOffset/>
<feGaussianBlur stdDeviation="3"/>
<feComposite in2="hardAlpha" operator="out"/>
<feColorMatrix type="matrix" values="0 0 0 0 0 0 0 0 0 0 0 0 0 0 0 0 0 0 0.14 0"/>
<feBlend mode="normal" in2="BackgroundImageFix" result="effect1_dropShadow_2571_2848"/>
<feBlend mode="normal" in="SourceGraphic" in2="effect1_dropShadow_2571_2848" result="shape"/>
</filter>
</defs>
</svg>
