<svg width="86" height="30" viewBox="0 0 86 30" fill="none" xmlns="http://www.w3.org/2000/svg">
<path d="M8.31445 10.7646C13.3269 10.7646 15.8339 12.6251 15.834 16.7754C15.834 19.4088 14.625 20.7545 12.5615 21.6133V21.7275L16.9844 29.999H12.9043C11.8634 29.9989 10.9119 29.427 10.4482 28.5225L7.6084 22.9873H5.54395V30C2.48274 29.9996 0.000239321 27.5898 0 24.6182V10.7646H8.31445ZM37.3809 15.0098H40.4473V15.4102C40.4473 17.0538 39.075 18.3865 37.3809 18.3867V25.0283C37.381 26.0579 37.8229 26.373 39.0312 26.373C39.5623 26.373 40.1222 26.316 40.5352 26.2295V29.3779C39.9157 29.6643 38.7948 29.9502 37.1738 29.9502C34.1364 29.9501 32.338 28.9774 32.3379 25.7432V18.3867H30.4512V15.0098H32.3379V11.5166H37.3809V15.0098ZM23.4326 14.6084C28.5335 14.6084 30.4502 17.3854 30.4502 22.2227V23.4824H21.0732C21.3682 25.8006 22.7251 26.459 25.291 26.459C27.0896 26.4589 28.6523 26.0296 29.832 25.5713C29.832 27.69 28.2172 29.4792 26.0547 29.7637C25.431 29.8457 24.7456 29.8926 23.9941 29.8926C18.5984 29.8926 15.9736 27.2594 15.9736 22.3936V22.0215C15.9738 17.4707 18.8919 14.6087 23.4326 14.6084ZM57.7539 24.9336C57.7538 27.6366 55.4967 29.828 52.7119 29.8281V15.0576H57.7539V24.9336ZM66.5957 24.3047H66.6836L69.6318 15.0586H74.3496L70.7188 25.0498C69.6789 27.9125 66.8905 29.8281 63.7637 29.8281L58.3984 15.0586H63.6465L66.5957 24.3047ZM50.7852 14.8096C51.1977 14.8096 51.4928 14.8666 51.6699 14.9238V17.8223C51.6699 18.5075 51.0906 19.0493 50.3848 19.0459H50.373C49.0466 19.0459 47.8958 19.332 47.0703 19.7324V29.6934H42.0283V14.9521H46.8633V16.7275H47.0117C47.8082 15.6112 49.1931 14.8098 50.7852 14.8096ZM83.7236 14.8096C84.1367 14.8096 85.4477 14.8666 85.624 14.9238L84.6074 19.2168C84.2832 19.1596 83.7221 19.0449 83.3096 19.0449C81.9833 19.0449 80.6795 19.0947 80.0078 20.4639V24.7988C80.0076 27.5017 77.7492 29.6924 74.9648 29.6924V14.9521H79.8018V16.7275H79.9492C80.7458 15.611 82.1313 14.8096 83.7236 14.8096ZM23.4336 17.8135C22.3129 17.8135 21.2518 18.4435 21.0449 20.7334H25.6455C25.6454 18.5871 24.9082 17.8135 23.4336 17.8135ZM5.48438 19.7529H7.57715C9.55236 19.7529 10.3203 18.8365 10.3203 17.0332C10.3203 15.2301 9.52329 14.4288 7.48926 14.4287H5.48438V19.7529ZM55.2334 9.78613C55.6855 9.78086 58.3828 9.80053 58.3828 11.0371C58.3828 12.358 55.3659 14.0228 55.2354 14.0947V14.0977C55.2351 14.0974 55.2343 14.0972 55.2334 14.0967C55.2326 14.0975 55.2318 14.0975 55.2314 14.0977V14.0947C55.1002 14.0228 52.0844 12.358 52.084 11.0371C52.084 9.7998 54.7817 9.78086 55.2334 9.78613ZM49.875 0.0634766C50.6983 -0.233439 51.4917 0.56679 51.1904 1.38867C49.9775 4.69683 46.048 11.3398 44.1445 11.7324C41.6205 12.2524 42.5106 4.52797 43.2529 3.26367C43.7836 2.36129 47.6895 0.851516 49.875 0.0634766ZM59.2754 1.38867C58.9742 0.566887 59.7677 -0.233146 60.5908 0.0634766C62.7763 0.851489 66.6822 2.36126 67.2129 3.26367C67.9553 4.52711 68.8464 12.2523 66.3223 11.7324C64.4784 11.3525 60.7325 5.10574 59.3975 1.70801L59.2754 1.38867Z" fill="url(#paint0_linear_2088_13965)"/>
<defs>
<linearGradient id="paint0_linear_2088_13965" x1="84.0827" y1="2.38636" x2="52.4719" y2="38.4639" gradientUnits="userSpaceOnUse">
<stop stop-color="#CDD6DE"/>
<stop offset="1" stop-color="#7FB5F7"/>
</linearGradient>
</defs>
</svg>
