<svg width="32" height="34" viewBox="0 0 32 34" fill="none" xmlns="http://www.w3.org/2000/svg">
<g filter="url(#filter0_d_495_126)">
<g filter="url(#filter1_d_495_126)">
<path d="M26.7229 17.4159H19.2594C19.0395 17.4159 18.8286 17.5032 18.673 17.6587C18.5175 17.8143 18.4302 18.0252 18.4302 18.2451C18.4302 18.905 18.168 19.5378 17.7015 20.0043C17.2349 20.4709 16.6021 20.733 15.9423 20.733C15.2825 20.733 14.6497 20.4709 14.1832 20.0043C13.7166 19.5378 13.4545 18.905 13.4545 18.2451C13.4545 18.0252 13.3672 17.8143 13.2116 17.6587C13.0561 17.5032 12.8452 17.4159 12.6252 17.4159H5.16179C4.94186 17.4159 4.73093 17.5032 4.57541 17.6587C4.41989 17.8143 4.33252 18.0252 4.33252 18.2451V21.5623C4.33348 22.4418 4.68327 23.285 5.30513 23.9068C5.927 24.5287 6.77016 24.8785 7.64961 24.8795H24.2351C25.1145 24.8785 25.9577 24.5287 26.5795 23.9068C27.2014 23.285 27.5512 22.4418 27.5522 21.5623V18.2451C27.5522 18.0252 27.4648 17.8143 27.3093 17.6587C27.1538 17.5032 26.9428 17.4159 26.7229 17.4159Z" fill="url(#paint0_linear_495_126)"/>
<path d="M27.5264 8.90886L25.8756 2.71871C25.547 1.01555 24.3171 0.000183105 22.5787 0.000183105H9.31035C8.43962 0.000183105 7.70364 0.243269 7.12833 0.722704C6.55302 1.20214 6.18296 1.86609 6.01399 2.71612L4.36271 8.90886C4.34407 8.97851 4.33467 9.0503 4.33472 9.1224V11.6103C4.33472 13.4394 5.82274 15.7567 7.65181 15.7567H24.2373C26.0663 15.7567 27.5544 13.4394 27.5544 11.6103V9.1224C27.5544 9.0503 27.545 8.97851 27.5264 8.90886ZM25.5107 8.29311H19.2616C19.043 8.292 18.8328 8.37774 18.6773 8.53148C18.5218 8.68523 18.4337 8.89441 18.4324 9.11307C18.4324 9.77289 18.1702 10.4057 17.7037 10.8723C17.2371 11.3388 16.6043 11.6009 15.9445 11.6009C15.2847 11.6009 14.6519 11.3388 14.1854 10.8723C13.7188 10.4057 13.4567 9.77289 13.4567 9.11307C13.4553 8.89441 13.3672 8.68523 13.2118 8.53148C13.0563 8.37774 12.8461 8.292 12.6274 8.29311H6.37836C6.36245 8.2931 6.34676 8.28943 6.3325 8.28238C6.31824 8.27533 6.30579 8.2651 6.29612 8.25247C6.28645 8.23985 6.27982 8.22516 6.27673 8.20956C6.27364 8.19395 6.27419 8.17785 6.27833 8.16249L7.63678 3.0582C7.82077 2.10399 8.35254 1.65877 9.31035 1.65877H22.5787C23.5422 1.65877 24.0735 2.10088 24.2502 3.05042L25.6107 8.16249C25.6149 8.17785 25.6154 8.19395 25.6123 8.20956C25.6093 8.22516 25.6026 8.23985 25.593 8.25247C25.5833 8.2651 25.5708 8.27533 25.5566 8.28238C25.5423 8.28943 25.5266 8.2931 25.5107 8.29311Z" fill="url(#paint1_linear_495_126)"/>
</g>
</g>
<defs>
<filter id="filter0_d_495_126" x="1.14349" y="0.000183105" width="29.6" height="31.2574" filterUnits="userSpaceOnUse" color-interpolation-filters="sRGB">
<feFlood flood-opacity="0" result="BackgroundImageFix"/>
<feColorMatrix in="SourceAlpha" type="matrix" values="0 0 0 0 0 0 0 0 0 0 0 0 0 0 0 0 0 0 127 0" result="hardAlpha"/>
<feOffset dy="3.18903"/>
<feGaussianBlur stdDeviation="1.59452"/>
<feComposite in2="hardAlpha" operator="out"/>
<feColorMatrix type="matrix" values="0 0 0 0 0.66395 0 0 0 0 0.955193 0 0 0 0 1 0 0 0 0.25 0"/>
<feBlend mode="normal" in2="BackgroundImageFix" result="effect1_dropShadow_495_126"/>
<feBlend mode="normal" in="SourceGraphic" in2="effect1_dropShadow_495_126" result="shape"/>
</filter>
<filter id="filter1_d_495_126" x="-1.43051e-05" y="0.000183105" width="31.887" height="33.5444" filterUnits="userSpaceOnUse" color-interpolation-filters="sRGB">
<feFlood flood-opacity="0" result="BackgroundImageFix"/>
<feColorMatrix in="SourceAlpha" type="matrix" values="0 0 0 0 0 0 0 0 0 0 0 0 0 0 0 0 0 0 127 0" result="hardAlpha"/>
<feOffset dy="4.33253"/>
<feGaussianBlur stdDeviation="2.16627"/>
<feComposite in2="hardAlpha" operator="out"/>
<feColorMatrix type="matrix" values="0 0 0 0 0.66395 0 0 0 0 0.955193 0 0 0 0 1 0 0 0 0.25 0"/>
<feBlend mode="normal" in2="BackgroundImageFix" result="effect1_dropShadow_495_126"/>
<feBlend mode="normal" in="SourceGraphic" in2="effect1_dropShadow_495_126" result="shape"/>
</filter>
<linearGradient id="paint0_linear_495_126" x1="27.1342" y1="18.0096" x2="19.3865" y2="27.648" gradientUnits="userSpaceOnUse">
<stop stop-color="#CDD6DE"/>
<stop offset="1" stop-color="#7FB5F7"/>
</linearGradient>
<linearGradient id="paint1_linear_495_126" x1="27.1364" y1="1.25355" x2="12.4856" y2="9.88697" gradientUnits="userSpaceOnUse">
<stop stop-color="#CDD6DE"/>
<stop offset="1" stop-color="#7FB5F7"/>
</linearGradient>
</defs>
</svg>