<svg width="79" height="27" viewBox="0 0 79 27" fill="none" xmlns="http://www.w3.org/2000/svg">
<g filter="url(#filter0_d_1735_11005)">
<path d="M13.0699 13.5025C11.8407 13.5025 10.7853 13.068 9.90372 12.1988C9.03458 11.3173 8.60001 10.2619 8.60001 9.03268C8.60001 7.81588 9.03458 6.77291 9.90372 5.90377C10.7853 5.03463 11.8407 4.60006 13.0699 4.60006C14.2618 4.60006 15.3048 5.03463 16.1988 5.90377C17.0928 6.77291 17.5398 7.81588 17.5398 9.03268C17.5398 9.85215 17.3287 10.6033 16.9065 11.2862C16.4968 11.9567 15.9567 12.4968 15.2862 12.9066C14.6157 13.3039 13.8769 13.5025 13.0699 13.5025ZM39.037 13.5025C37.8078 13.5025 36.7524 13.068 35.8709 12.1988C35.0017 11.3173 34.5672 10.2619 34.5672 9.03268C34.5672 7.81588 35.0017 6.77291 35.8709 5.90377C36.7524 5.03463 37.8078 4.60006 39.037 4.60006C40.229 4.60006 41.272 5.03463 42.1659 5.90377C43.0599 6.77291 43.5069 7.81588 43.5069 9.03268C43.5069 9.85215 43.2958 10.6033 42.8737 11.2862C42.4639 11.9567 41.9238 12.4968 41.2533 12.9066C40.5829 13.3039 39.8441 13.5025 39.037 13.5025ZM65.0042 13.5025C63.775 13.5025 62.7196 13.068 61.838 12.1988C60.9689 11.3173 60.5343 10.2619 60.5343 9.03268C60.5343 7.81588 60.9689 6.77291 61.838 5.90377C62.7196 5.03463 63.775 4.60006 65.0042 4.60006C66.1961 4.60006 67.2391 5.03463 68.1331 5.90377C69.0271 6.77291 69.474 7.81588 69.474 9.03268C69.474 9.85215 69.263 10.6033 68.8408 11.2862C68.4311 11.9567 67.891 12.4968 67.2205 12.9066C66.55 13.3039 65.8112 13.5025 65.0042 13.5025Z" fill="#D3E7FF"/>
</g>
<defs>
<filter id="filter0_d_1735_11005" x="-2.47955e-05" y="9.72748e-05" width="78.074" height="26.1023" filterUnits="userSpaceOnUse" color-interpolation-filters="sRGB">
<feFlood flood-opacity="0" result="BackgroundImageFix"/>
<feColorMatrix in="SourceAlpha" type="matrix" values="0 0 0 0 0 0 0 0 0 0 0 0 0 0 0 0 0 0 127 0" result="hardAlpha"/>
<feOffset dy="4"/>
<feGaussianBlur stdDeviation="4.3"/>
<feComposite in2="hardAlpha" operator="out"/>
<feColorMatrix type="matrix" values="0 0 0 0 0.654879 0 0 0 0 0.873456 0 0 0 0 1 0 0 0 0.25 0"/>
<feBlend mode="normal" in2="BackgroundImageFix" result="effect1_dropShadow_1735_11005"/>
<feBlend mode="normal" in="SourceGraphic" in2="effect1_dropShadow_1735_11005" result="shape"/>
</filter>
</defs>
</svg>
