<svg width="189" height="166" viewBox="0 0 189 166" fill="none" xmlns="http://www.w3.org/2000/svg">
<path opacity="0.47" d="M77.7793 27.8037C77.7793 27.8037 73.8102 10.7755 62.1458 10.7755C50.4813 10.7755 40.5848 21.0793 32.976 30.4676C25.3672 39.856 -0.249478 58.4059 0.00183624 66.4173C0.257483 74.4326 0.5088 75.5788 8.11755 79.9288C15.7263 84.2787 16.7402 82.6749 25.3672 88.8595C33.9899 95.0441 42.8682 86.3402 49.2118 65.9596C49.2118 65.9596 24.0457 167.96 30.8962 183.001C41.1697 205.565 148.364 183.001 148.364 183.001C148.364 183.001 122.656 96.82 123.618 94.7898C123.618 94.7898 160.427 96.2411 165.18 75.3089C170.133 57.956 166.173 55.6285 161.814 53.3049L133.034 48.7789L131.465 34.6142C131.465 34.6142 146.583 37.5754 152.862 40.6658C159.136 43.7561 179.674 50.195 183.669 38.4751C187.664 26.7592 191.23 8.47146 184.952 2.93622C178.673 -2.59901 167.55 1.39105 167.55 1.39105C167.55 1.39105 149.863 8.34627 132.18 10.0166C114.493 11.6909 109.215 20.0622 108.791 27.659L77.7836 27.8037H77.7793Z" fill="url(#paint0_linear_1735_11000)"/>
<path d="M90.6398 60.2131C93.6359 60.2131 96.0647 57.2707 96.0647 53.6412C96.0647 50.0117 93.6359 47.0693 90.6398 47.0693C87.6437 47.0693 85.2148 50.0117 85.2148 53.6412C85.2148 57.2707 87.6437 60.2131 90.6398 60.2131Z" fill="black"/>
<path d="M117.314 60.6044C120.31 60.6044 122.739 57.6621 122.739 54.0326C122.739 50.403 120.31 47.4607 117.314 47.4607C114.317 47.4607 111.889 50.403 111.889 54.0326C111.889 57.6621 114.317 60.6044 117.314 60.6044Z" fill="black"/>
<path d="M142.137 58.2886C142.137 58.2886 158.815 58.4724 160.327 59.247C161.839 60.0215 161.488 64.9504 161.185 65.678C160.882 66.4095 158.81 70.7438 150.825 70.7438C142.839 70.7438 140.919 66.4095 140.768 64.8135C140.616 63.2175 140.395 60.1076 141.275 58.8362C141.548 58.4372 142.133 58.2886 142.133 58.2886H142.137Z" fill="black"/>
<defs>
<linearGradient id="paint0_linear_1735_11000" x1="122.005" y1="159.141" x2="-34.8695" y2="116.611" gradientUnits="userSpaceOnUse">
<stop stop-color="#7FB5F7"/>
<stop offset="1" stop-color="#CDD6DE"/>
</linearGradient>
</defs>
</svg>
