<svg width="340" height="248" viewBox="0 0 340 248" fill="none" xmlns="http://www.w3.org/2000/svg">
<mask id="mask0_154_2" style="mask-type:alpha" maskUnits="userSpaceOnUse" x="0" y="50" width="340" height="198">
<rect y="50.9983" width="339.418" height="196.068" fill="#D9D9D9"/>
</mask>
<g mask="url(#mask0_154_2)">
<path opacity="0.47" d="M87.4384 108.971C87.4384 108.971 83.4694 91.943 71.805 91.943C60.1405 91.943 50.2439 102.247 42.6352 111.635C35.0264 121.023 9.4097 139.573 9.66102 147.585C9.91666 155.6 10.168 156.746 17.7767 161.096C25.3855 165.446 26.3994 163.842 35.0264 170.027C43.6491 176.212 52.5274 167.508 58.8709 147.127C58.8709 147.127 33.7049 249.128 40.5553 264.169C50.8289 286.732 158.023 264.169 158.023 264.169C158.023 264.169 132.315 177.987 133.277 175.957C133.277 175.957 170.086 177.409 174.839 156.476C179.792 139.124 175.832 136.796 171.473 134.472L142.693 129.946L141.124 115.782C141.124 115.782 156.242 118.743 162.521 121.833C168.795 124.924 189.333 131.362 193.328 119.643C197.323 107.927 200.889 89.6389 194.611 84.1037C188.332 78.5685 177.21 82.5585 177.21 82.5585C177.21 82.5585 159.522 89.5138 141.839 91.1841C124.152 92.8584 118.874 101.23 118.45 108.826L87.4428 108.971H87.4384Z" fill="url(#paint0_linear_154_2)"/>
<path d="M100.299 141.381C103.295 141.381 105.724 138.438 105.724 134.809C105.724 131.179 103.295 128.237 100.299 128.237C97.3028 128.237 94.874 131.179 94.874 134.809C94.874 138.438 97.3028 141.381 100.299 141.381Z" fill="black"/>
<path d="M126.973 141.772C129.969 141.772 132.398 138.83 132.398 135.2C132.398 131.57 129.969 128.628 126.973 128.628C123.977 128.628 121.548 131.57 121.548 135.2C121.548 138.83 123.977 141.772 126.973 141.772Z" fill="black"/>
<path d="M151.796 139.456C151.796 139.456 168.474 139.64 169.986 140.414C171.498 141.189 171.147 146.118 170.844 146.845C170.541 147.577 168.47 151.911 160.484 151.911C152.498 151.911 150.579 147.577 150.427 145.981C150.275 144.385 150.054 141.275 150.934 140.004C151.207 139.605 151.792 139.456 151.792 139.456H151.796Z" fill="black"/>
</g>
<g filter="url(#filter0_d_154_2)">
<path d="M242.222 51.4842C240.993 51.4842 239.938 51.0497 239.056 50.1805C238.187 49.299 237.752 48.2436 237.752 47.0144C237.752 45.7976 238.187 44.7546 239.056 43.8855C239.938 43.0163 240.993 42.5817 242.222 42.5817C243.414 42.5817 244.457 43.0163 245.351 43.8855C246.245 44.7546 246.692 45.7976 246.692 47.0144C246.692 47.8338 246.481 48.585 246.059 49.2679C245.649 49.9384 245.109 50.4785 244.438 50.8883C243.768 51.2856 243.029 51.4842 242.222 51.4842ZM268.189 51.4842C266.96 51.4842 265.905 51.0497 265.023 50.1805C264.154 49.299 263.719 48.2436 263.719 47.0144C263.719 45.7976 264.154 44.7546 265.023 43.8855C265.905 43.0163 266.96 42.5817 268.189 42.5817C269.381 42.5817 270.424 43.0163 271.318 43.8855C272.212 44.7546 272.659 45.7976 272.659 47.0144C272.659 47.8338 272.448 48.585 272.026 49.2679C271.616 49.9384 271.076 50.4785 270.406 50.8883C269.735 51.2856 268.996 51.4842 268.189 51.4842ZM294.156 51.4842C292.927 51.4842 291.872 51.0497 290.99 50.1805C290.121 49.299 289.687 48.2436 289.687 47.0144C289.687 45.7976 290.121 44.7546 290.99 43.8855C291.872 43.0163 292.927 42.5817 294.156 42.5817C295.348 42.5817 296.391 43.0163 297.285 43.8855C298.179 44.7546 298.626 45.7976 298.626 47.0144C298.626 47.8338 298.415 48.585 297.993 49.2679C297.583 49.9384 297.043 50.4785 296.373 50.8883C295.702 51.2856 294.963 51.4842 294.156 51.4842Z" fill="#D3E7FF"/>
</g>
<defs>
<filter id="filter0_d_154_2" x="229.152" y="37.9818" width="78.074" height="26.1023" filterUnits="userSpaceOnUse" color-interpolation-filters="sRGB">
<feFlood flood-opacity="0" result="BackgroundImageFix"/>
<feColorMatrix in="SourceAlpha" type="matrix" values="0 0 0 0 0 0 0 0 0 0 0 0 0 0 0 0 0 0 127 0" result="hardAlpha"/>
<feOffset dy="4"/>
<feGaussianBlur stdDeviation="4.3"/>
<feComposite in2="hardAlpha" operator="out"/>
<feColorMatrix type="matrix" values="0 0 0 0 0.654879 0 0 0 0 0.873456 0 0 0 0 1 0 0 0 0.25 0"/>
<feBlend mode="normal" in2="BackgroundImageFix" result="effect1_dropShadow_154_2"/>
<feBlend mode="normal" in="SourceGraphic" in2="effect1_dropShadow_154_2" result="shape"/>
</filter>
<linearGradient id="paint0_linear_154_2" x1="131.664" y1="240.308" x2="-25.2103" y2="197.778" gradientUnits="userSpaceOnUse">
<stop stop-color="#7FB5F7"/>
<stop offset="1" stop-color="#CDD6DE"/>
</linearGradient>
</defs>
</svg>
