<svg width="312" height="266" viewBox="0 0 312 266" fill="none" xmlns="http://www.w3.org/2000/svg">
<g filter="url(#filter0_d_2088_14373)">
<path d="M238.291 90.6921C237.592 104.131 226.07 115.409 213.46 119.554C194.894 125.554 176.844 117.835 159.298 109.985C158.468 109.615 157.637 109.241 156.808 108.872C156.808 108.872 160.425 122.872 167.457 128.089C174.487 133.301 186.69 124.555 194.525 137.852C200.312 147.672 197.329 174.2 175.864 184.562C175.696 184.648 175.528 184.726 175.358 184.809C175.353 184.811 175.346 184.811 175.343 184.813C172.773 186.006 169.94 186.974 166.832 187.654L166.844 187.663C160.643 189.015 153.665 189.135 146.006 188.025C145.002 187.878 144.07 188.572 143.926 189.578C143.779 190.581 144.475 191.514 145.481 191.658C149.104 192.186 152.595 192.447 155.937 192.447C156.169 192.447 156.399 192.444 156.629 192.442L191.807 313.363H54.0244L73.7476 117.485C73.8494 116.477 73.1156 115.575 72.105 115.473C71.092 115.372 70.1949 116.11 70.0931 117.118L63.5961 181.618C57.2836 183.504 36.7367 186.669 24.1236 179.514C20.5733 177.497 18.3319 173.767 18.126 169.691C15.4443 116.825 56.3037 68.9594 71.6742 64.5286C96.3039 57.4233 103.748 87.8471 103.748 87.8471H128.699C141.376 76.3891 149.765 67.4967 166.605 63.6363C186.406 58.8126 217.819 60.9925 231.656 74.5713C235.928 78.9003 238.553 84.5643 238.291 90.6921Z" fill="white"/>
</g>
<path d="M174.276 138.044C174.276 138.044 185.201 136.56 187.313 141.977C189.262 146.98 182.692 153.732 178.975 157.035C177.51 158.336 175.553 158.552 173.841 157.602C169.492 155.192 161.605 150.038 162.414 144.733C163.291 138.985 174.276 138.044 174.276 138.044Z" fill="#2F507F"/>
<path d="M117.48 142.56C120.88 142.3 123.355 138.426 123.009 133.907C122.662 129.388 119.626 125.936 116.227 126.196C112.828 126.457 110.353 130.331 110.699 134.85C111.045 139.369 114.081 142.821 117.48 142.56Z" fill="#2F507F"/>
<path d="M142.006 140.935C145.406 140.675 147.881 136.801 147.534 132.282C147.188 127.763 144.152 124.311 140.753 124.571C137.354 124.832 134.879 128.706 135.225 133.225C135.571 137.744 138.607 141.196 142.006 140.935Z" fill="#2F507F"/>
<path d="M107.007 159.409C107.007 159.409 117.776 172.692 139.083 169.258" stroke="#2F507F" stroke-width="2.39948" stroke-miterlimit="10" stroke-linecap="round"/>
<defs>
<filter id="filter0_d_2088_14373" x="-59.3" y="4.57764e-05" width="370.909" height="402.663" filterUnits="userSpaceOnUse" color-interpolation-filters="sRGB">
<feFlood flood-opacity="0" result="BackgroundImageFix"/>
<feColorMatrix in="SourceAlpha" type="matrix" values="0 0 0 0 0 0 0 0 0 0 0 0 0 0 0 0 0 0 127 0" result="hardAlpha"/>
<feOffset dx="-2" dy="14"/>
<feGaussianBlur stdDeviation="37.65"/>
<feComposite in2="hardAlpha" operator="out"/>
<feColorMatrix type="matrix" values="0 0 0 0 0.788255 0 0 0 0 0.873262 0 0 0 0 1 0 0 0 0.27 0"/>
<feBlend mode="normal" in2="BackgroundImageFix" result="effect1_dropShadow_2088_14373"/>
<feBlend mode="normal" in="SourceGraphic" in2="effect1_dropShadow_2088_14373" result="shape"/>
</filter>
</defs>
</svg>
