<svg width="77" height="18" viewBox="0 0 77 18" fill="none" xmlns="http://www.w3.org/2000/svg">
<path fill-rule="evenodd" clip-rule="evenodd" d="M7.40918 0.872458C11.8757 0.872458 14.1093 2.529 14.1094 6.225C14.1094 8.57002 13.0319 9.76783 11.1934 10.5326V10.6342L15.1338 18.0004H11.499C10.5716 18.0004 9.72292 17.4917 9.30957 16.6859L6.7793 11.7562H4.94043V18.0004C2.21251 18.0004 0 15.8548 0 13.2084V0.872458H7.40918ZM33.3076 4.65273H36.041V5.00918C36.041 6.47288 34.8171 7.66054 33.3076 7.66054V13.5736C33.3076 14.491 33.702 14.7719 34.7793 14.7719C35.2524 14.7719 35.7509 14.7209 36.1191 14.6439V17.4477C35.5674 17.7026 34.5689 17.9574 33.124 17.9574C30.4176 17.9574 28.8154 17.0908 28.8154 14.2103V7.66054H27.1338V4.65273H28.8154V1.54238H33.3076V4.65273ZM20.8799 4.29531C25.425 4.29531 27.1328 6.76795 27.1328 11.0756V12.1967H18.7783C19.0411 14.2614 20.249 14.848 22.5352 14.848C24.138 14.848 25.5309 14.4661 26.582 14.058C26.5819 15.9448 25.1426 17.5378 23.2158 17.7914C22.6603 17.8644 22.0496 17.9066 21.3799 17.9066C16.5719 17.9066 14.2324 15.561 14.2324 11.2279V10.8969C14.2325 6.84429 16.8336 4.29542 20.8799 4.29531ZM51.4619 13.4896C51.4619 15.8968 49.45 17.848 46.9688 17.848V4.6957H51.4619V13.4896ZM59.3398 12.9291H59.418L62.0459 4.6957H66.249L63.0137 13.5932C62.0869 16.1424 59.6028 17.848 56.8164 17.848L52.0361 4.6957H56.7129L59.3398 12.9291ZM45.2529 4.47402C45.6203 4.47406 45.8831 4.52475 46.041 4.57558V7.15664C46.041 7.7669 45.5246 8.24974 44.8955 8.24648H44.8848C43.7029 8.2465 42.6782 8.50128 41.9424 8.85781V17.7279H37.4492V4.60097H41.7578V6.18105H41.8896C42.5994 5.18693 43.8343 4.47402 45.2529 4.47402ZM74.6016 4.47402C74.9689 4.47402 76.1364 4.52476 76.2949 4.57558L75.3896 8.39882C75.1007 8.34797 74.601 8.24551 74.2334 8.2455C73.0512 8.2455 71.8888 8.28996 71.29 9.50918V13.3686C71.29 15.7756 69.279 17.7268 66.7979 17.7269V4.60097H71.1074V6.18105H71.2383C71.948 5.18683 73.1829 4.47406 74.6016 4.47402ZM20.8809 7.1498C19.8822 7.1498 18.9361 7.71005 18.752 9.74941H22.8516C22.8515 7.83788 22.1947 7.14982 20.8809 7.1498ZM4.88672 8.87636H6.75195C8.51209 8.87636 9.19531 8.06033 9.19531 6.45449C9.19527 4.84876 8.48535 4.13515 6.67285 4.13515H4.88672V8.87636ZM49.2158 0.000387613C49.6183 -0.00417577 52.0219 0.0138109 52.0225 1.11465C52.0225 2.29057 49.3352 3.77279 49.2178 3.8373V3.84023C49.2175 3.84003 49.2168 3.83975 49.2158 3.83925C49.2147 3.84033 49.214 3.84023 49.2139 3.84023V3.8373C49.0946 3.7721 46.4092 2.29027 46.4092 1.11465C46.4097 0.0132144 48.8131 -0.00417337 49.2158 0.000387613Z" fill="url(#paint0_linear_495_154)"/>
<path fill-rule="evenodd" clip-rule="evenodd" d="M7.40918 0.872458C11.8757 0.872458 14.1093 2.529 14.1094 6.225C14.1094 8.57002 13.0319 9.76783 11.1934 10.5326V10.6342L15.1338 18.0004H11.499C10.5716 18.0004 9.72292 17.4917 9.30957 16.6859L6.7793 11.7562H4.94043V18.0004C2.21251 18.0004 0 15.8548 0 13.2084V0.872458H7.40918ZM33.3076 4.65273H36.041V5.00918C36.041 6.47288 34.8171 7.66054 33.3076 7.66054V13.5736C33.3076 14.491 33.702 14.7719 34.7793 14.7719C35.2524 14.7719 35.7509 14.7209 36.1191 14.6439V17.4477C35.5674 17.7026 34.5689 17.9574 33.124 17.9574C30.4176 17.9574 28.8154 17.0908 28.8154 14.2103V7.66054H27.1338V4.65273H28.8154V1.54238H33.3076V4.65273ZM20.8799 4.29531C25.425 4.29531 27.1328 6.76795 27.1328 11.0756V12.1967H18.7783C19.0411 14.2614 20.249 14.848 22.5352 14.848C24.138 14.848 25.5309 14.4661 26.582 14.058C26.5819 15.9448 25.1426 17.5378 23.2158 17.7914C22.6603 17.8644 22.0496 17.9066 21.3799 17.9066C16.5719 17.9066 14.2324 15.561 14.2324 11.2279V10.8969C14.2325 6.84429 16.8336 4.29542 20.8799 4.29531ZM51.4619 13.4896C51.4619 15.8968 49.45 17.848 46.9688 17.848V4.6957H51.4619V13.4896ZM59.3398 12.9291H59.418L62.0459 4.6957H66.249L63.0137 13.5932C62.0869 16.1424 59.6028 17.848 56.8164 17.848L52.0361 4.6957H56.7129L59.3398 12.9291ZM45.2529 4.47402C45.6203 4.47406 45.8831 4.52475 46.041 4.57558V7.15664C46.041 7.7669 45.5246 8.24974 44.8955 8.24648H44.8848C43.7029 8.2465 42.6782 8.50128 41.9424 8.85781V17.7279H37.4492V4.60097H41.7578V6.18105H41.8896C42.5994 5.18693 43.8343 4.47402 45.2529 4.47402ZM74.6016 4.47402C74.9689 4.47402 76.1364 4.52476 76.2949 4.57558L75.3896 8.39882C75.1007 8.34797 74.601 8.24551 74.2334 8.2455C73.0512 8.2455 71.8888 8.28996 71.29 9.50918V13.3686C71.29 15.7756 69.279 17.7268 66.7979 17.7269V4.60097H71.1074V6.18105H71.2383C71.948 5.18683 73.1829 4.47406 74.6016 4.47402ZM20.8809 7.1498C19.8822 7.1498 18.9361 7.71005 18.752 9.74941H22.8516C22.8515 7.83788 22.1947 7.14982 20.8809 7.1498ZM4.88672 8.87636H6.75195C8.51209 8.87636 9.19531 8.06033 9.19531 6.45449C9.19527 4.84876 8.48535 4.13515 6.67285 4.13515H4.88672V8.87636ZM49.2158 0.000387613C49.6183 -0.00417577 52.0219 0.0138109 52.0225 1.11465C52.0225 2.29057 49.3352 3.77279 49.2178 3.8373V3.84023C49.2175 3.84003 49.2168 3.83975 49.2158 3.83925C49.2147 3.84033 49.214 3.84023 49.2139 3.84023V3.8373C49.0946 3.7721 46.4092 2.29027 46.4092 1.11465C46.4097 0.0132144 48.8131 -0.00417337 49.2158 0.000387613Z" fill="white" fill-opacity="0.3"/>
<defs>
<linearGradient id="paint0_linear_495_154" x1="76.2949" y1="9.0002" x2="0" y2="9.0002" gradientUnits="userSpaceOnUse">
<stop stop-color="#A7CCFF"/>
<stop offset="1" stop-color="white"/>
</linearGradient>
</defs>
</svg>
