<svg xmlns="http://www.w3.org/2000/svg" width="64" height="64" viewBox="0 0 64 64" fill="none">
  <g filter="url(#filter0_d_2094_3604)">
    <circle cx="32" cy="32" r="28" fill="white"/>
  </g>
  <g filter="url(#filter1_d_2094_3604)">
    <path d="M31.8828 18.3887C35.4694 18.3887 38.4412 20.8975 38.1382 24.4117C37.8606 27.6286 35.0474 30.2548 31.8828 30.2548C28.7196 30.2548 25.9003 27.6304 25.6274 24.4103C25.3252 20.8405 28.3029 18.3887 31.8828 18.3887ZM31.8828 20.4827C29.1832 20.4827 27.5402 22.2045 27.7118 24.2331C27.8951 26.3958 29.8328 28.1608 31.8828 28.1608C33.9313 28.1608 35.8669 26.3966 36.0538 24.2317C36.2247 22.2492 34.5756 20.4827 31.8828 20.4827Z" fill="url(#paint0_linear_2094_3604)"/>
  </g>
  <g filter="url(#filter2_d_2094_3604)">
    <path d="M40.0192 41.1405C40.0192 40.6624 39.8131 39.9979 39.3409 39.2176C38.8784 38.4533 38.2069 37.656 37.3995 36.932C35.7545 35.4572 33.7275 34.4427 32 34.4427C30.2723 34.4427 28.2454 35.4569 26.6006 36.9313C25.7932 37.6551 25.1216 38.4519 24.6591 39.2162C24.187 39.9965 23.9809 40.6615 23.9809 41.1405C23.9809 41.5528 24.1326 41.862 24.4548 42.1453C24.8112 42.4586 25.3831 42.7385 26.1818 42.9598C27.7794 43.4025 29.9227 43.5167 32 43.5167C34.0771 43.5167 36.2206 43.4022 37.8183 42.9591C38.617 42.7376 39.1887 42.4572 39.5452 42.1439C39.8676 41.8605 40.0192 41.5517 40.0192 41.1405ZM42.1111 41.1405C42.1111 42.2171 41.6508 43.0797 40.9256 43.7171C40.2344 44.3246 39.3225 44.7145 38.3767 44.9768C36.4851 45.5014 34.0961 45.6107 32 45.6107C29.9042 45.6107 27.515 45.5024 25.6234 44.9782C24.6775 44.7161 23.7657 44.3262 23.0745 43.7185C22.3491 43.0807 21.8889 42.2175 21.8889 41.1405C21.8889 40.1302 22.294 39.0822 22.8695 38.131C23.4547 37.164 24.2674 36.2112 25.2046 35.3711C27.049 33.7177 29.5546 32.3486 32 32.3486C34.4457 32.3486 36.9512 33.7188 38.7955 35.3724C39.7327 36.2127 40.5454 37.1656 41.1305 38.1324C41.7059 39.0832 42.1111 40.1308 42.1111 41.1405Z" fill="url(#paint1_linear_2094_3604)"/>
  </g>
  <defs>
    <filter id="filter0_d_2094_3604" x="0" y="0" width="64" height="64" filterUnits="userSpaceOnUse" color-interpolation-filters="sRGB">
      <feFlood flood-opacity="0" result="BackgroundImageFix"/>
      <feColorMatrix in="SourceAlpha" type="matrix" values="0 0 0 0 0 0 0 0 0 0 0 0 0 0 0 0 0 0 127 0" result="hardAlpha"/>
      <feMorphology radius="1" operator="dilate" in="SourceAlpha" result="effect1_dropShadow_2094_3604"/>
      <feOffset/>
      <feGaussianBlur stdDeviation="1.5"/>
      <feComposite in2="hardAlpha" operator="out"/>
      <feColorMatrix type="matrix" values="0 0 0 0 0.360934 0 0 0 0 0.680467 0 0 0 0 1 0 0 0 0.4 0"/>
      <feBlend mode="normal" in2="BackgroundImageFix" result="effect1_dropShadow_2094_3604"/>
      <feBlend mode="normal" in="SourceGraphic" in2="effect1_dropShadow_2094_3604" result="shape"/>
    </filter>
    <filter id="filter1_d_2094_3604" x="22.5196" y="18.3887" width="18.7264" height="18.0394" filterUnits="userSpaceOnUse" color-interpolation-filters="sRGB">
      <feFlood flood-opacity="0" result="BackgroundImageFix"/>
      <feColorMatrix in="SourceAlpha" type="matrix" values="0 0 0 0 0 0 0 0 0 0 0 0 0 0 0 0 0 0 127 0" result="hardAlpha"/>
      <feOffset dy="3.08659"/>
      <feGaussianBlur stdDeviation="1.5433"/>
      <feComposite in2="hardAlpha" operator="out"/>
      <feColorMatrix type="matrix" values="0 0 0 0 0.66395 0 0 0 0 0.955193 0 0 0 0 1 0 0 0 0.34 0"/>
      <feBlend mode="normal" in2="BackgroundImageFix" result="effect1_dropShadow_2094_3604"/>
      <feBlend mode="normal" in="SourceGraphic" in2="effect1_dropShadow_2094_3604" result="shape"/>
    </filter>
    <filter id="filter2_d_2094_3604" x="18.8023" y="32.3486" width="26.3953" height="19.4349" filterUnits="userSpaceOnUse" color-interpolation-filters="sRGB">
      <feFlood flood-opacity="0" result="BackgroundImageFix"/>
      <feColorMatrix in="SourceAlpha" type="matrix" values="0 0 0 0 0 0 0 0 0 0 0 0 0 0 0 0 0 0 127 0" result="hardAlpha"/>
      <feOffset dy="3.08659"/>
      <feGaussianBlur stdDeviation="1.5433"/>
      <feComposite in2="hardAlpha" operator="out"/>
      <feColorMatrix type="matrix" values="0 0 0 0 0.66395 0 0 0 0 0.955193 0 0 0 0 1 0 0 0 0.34 0"/>
      <feBlend mode="normal" in2="BackgroundImageFix" result="effect1_dropShadow_2094_3604"/>
      <feBlend mode="normal" in="SourceGraphic" in2="effect1_dropShadow_2094_3604" result="shape"/>
    </filter>
    <linearGradient id="paint0_linear_2094_3604" x1="37.9336" y1="19.3326" x2="28.8822" y2="23.1616" gradientUnits="userSpaceOnUse">
      <stop stop-color="#CDD6DE"/>
      <stop offset="1" stop-color="#7FB5F7"/>
    </linearGradient>
    <linearGradient id="paint1_linear_2094_3604" x1="41.7471" y1="33.4036" x2="29.2158" y2="41.0444" gradientUnits="userSpaceOnUse">
      <stop stop-color="#CDD6DE"/>
      <stop offset="1" stop-color="#7FB5F7"/>
    </linearGradient>
  </defs>
</svg>