<svg width="402" height="563" viewBox="0 0 402 563" fill="none" xmlns="http://www.w3.org/2000/svg">
<path d="M-109.07 371.546C-109.07 511.781 4.32368 625.464 144.202 625.464C223.604 625.464 349.699 673.604 400.791 625.464C439.705 588.797 481.48 410.523 421.356 306.105C361.232 201.686 313.314 274.167 144.202 117.628C85.3616 63.1621 36.8053 60.3604 -1.5 85.7718C-73.2866 133.394 -109.07 280.104 -109.07 371.546Z" fill="url(#paint0_linear_154_2)"/>
<g filter="url(#filter0_ddd_154_2)">
<path d="M321.425 272.946C320.434 292.033 304.069 308.051 286.158 313.938C259.789 322.459 234.153 311.497 209.233 300.346C208.053 299.822 206.873 299.291 205.697 298.766C205.697 298.766 210.834 318.651 220.821 326.06C230.805 333.462 248.138 321.041 259.265 339.927C267.484 353.874 263.248 391.552 232.762 406.269C232.523 406.39 232.284 406.501 232.042 406.618C232.036 406.622 232.025 406.622 232.022 406.625C228.371 408.32 224.347 409.694 219.934 410.659L219.95 410.673C211.143 412.592 201.233 412.764 190.354 411.187C188.929 410.979 187.604 411.964 187.399 413.392C187.191 414.818 188.179 416.142 189.608 416.347C194.755 417.097 199.713 417.467 204.46 417.467C204.789 417.467 205.115 417.463 205.441 417.46L255.406 589.204H59.7135L87.7262 310.999C87.8708 309.567 86.8287 308.287 85.3932 308.142C83.9544 307.998 82.6804 309.046 82.5358 310.478L73.3081 402.087C64.3425 404.766 35.16 409.261 17.2457 399.098C12.2032 396.234 9.01971 390.936 8.72725 385.148C4.91849 310.062 62.9508 242.079 84.7814 235.786C119.763 225.694 130.335 268.905 130.335 268.905H165.774C183.779 252.631 195.693 240.001 219.611 234.518C247.734 227.667 292.35 230.763 312.003 250.049C318.07 256.198 321.798 264.242 321.425 272.946Z" fill="white"/>
</g>
<path d="M230.506 340.198C230.506 340.198 246.022 338.09 249.021 345.784C251.79 352.89 242.459 362.48 237.179 367.17C235.099 369.019 232.319 369.326 229.888 367.977C223.711 364.554 212.509 357.234 213.659 349.698C214.904 341.535 230.506 340.198 230.506 340.198Z" fill="#2F507F"/>
<path d="M149.84 346.613C154.668 346.243 158.183 340.741 157.691 334.323C157.2 327.905 152.887 323.002 148.059 323.371C143.232 323.741 139.716 329.244 140.208 335.662C140.7 342.08 145.012 346.983 149.84 346.613Z" fill="#2F507F"/>
<path d="M184.675 344.306C189.502 343.936 193.018 338.433 192.526 332.015C192.035 325.597 187.722 320.694 182.894 321.064C178.067 321.434 174.551 326.936 175.043 333.354C175.535 339.772 179.847 344.675 184.675 344.306Z" fill="#2F507F"/>
<path d="M134.965 370.544C134.965 370.544 150.26 389.41 180.522 384.532" stroke="#2F507F" stroke-width="3.40797" stroke-miterlimit="10" stroke-linecap="round"/>
<defs>
<filter id="filter0_ddd_154_2" x="-186.652" y="0.000198364" width="691.303" height="913.403" filterUnits="userSpaceOnUse" color-interpolation-filters="sRGB">
<feFlood flood-opacity="0" result="BackgroundImageFix"/>
<feColorMatrix in="SourceAlpha" type="matrix" values="0 0 0 0 0 0 0 0 0 0 0 0 0 0 0 0 0 0 127 0" result="hardAlpha"/>
<feOffset dx="34" dy="62"/>
<feGaussianBlur stdDeviation="65.35"/>
<feComposite in2="hardAlpha" operator="out"/>
<feColorMatrix type="matrix" values="0 0 0 0 0.462745 0 0 0 0 0.678431 0 0 0 0 1 0 0 0 0.59 0"/>
<feBlend mode="normal" in2="BackgroundImageFix" result="effect1_dropShadow_154_2"/>
<feColorMatrix in="SourceAlpha" type="matrix" values="0 0 0 0 0 0 0 0 0 0 0 0 0 0 0 0 0 0 127 0" result="hardAlpha"/>
<feOffset dx="34" dy="-82"/>
<feGaussianBlur stdDeviation="74.6"/>
<feComposite in2="hardAlpha" operator="out"/>
<feColorMatrix type="matrix" values="0 0 0 0 0.462745 0 0 0 0 0.678431 0 0 0 0 1 0 0 0 0.36 0"/>
<feBlend mode="normal" in2="effect1_dropShadow_154_2" result="effect2_dropShadow_154_2"/>
<feColorMatrix in="SourceAlpha" type="matrix" values="0 0 0 0 0 0 0 0 0 0 0 0 0 0 0 0 0 0 127 0" result="hardAlpha"/>
<feOffset dx="-57" dy="186"/>
<feGaussianBlur stdDeviation="69.1"/>
<feComposite in2="hardAlpha" operator="out"/>
<feColorMatrix type="matrix" values="0 0 0 0 0.901961 0 0 0 0 0.917647 0 0 0 0 0.929412 0 0 0 1 0"/>
<feBlend mode="normal" in2="effect2_dropShadow_154_2" result="effect3_dropShadow_154_2"/>
<feBlend mode="normal" in="SourceGraphic" in2="effect3_dropShadow_154_2" result="shape"/>
</filter>
<linearGradient id="paint0_linear_154_2" x1="441.469" y1="116.167" x2="27.4852" y2="277.138" gradientUnits="userSpaceOnUse">
<stop stop-color="#CDD6DE"/>
<stop offset="1" stop-color="#7FB5F7"/>
</linearGradient>
</defs>
</svg>
