<svg width="402" height="560" viewBox="0 0 402 560" fill="none" xmlns="http://www.w3.org/2000/svg">
<path d="M-110.712 402.636C-110.712 523.724 35.2579 682.402 156.038 682.402C224.598 682.402 392.328 645.258 392.328 645.258C392.328 645.258 475.744 516.388 423.829 426.227C371.914 336.066 302.059 379.071 156.038 243.906C105.231 196.876 100.897 149.505 -17.8292 155.881C-179.823 164.581 -110.712 323.68 -110.712 402.636Z" fill="url(#paint0_linear_154_2)"/>
<g filter="url(#filter0_ddd_154_2)">
<path d="M313.286 259.344C312.343 277.48 296.794 292.7 279.776 298.293C254.721 306.39 230.363 295.974 206.684 285.379C205.563 284.881 204.442 284.376 203.324 283.878C203.324 283.878 208.205 302.771 217.695 309.811C227.181 316.845 243.65 305.042 254.223 322.987C262.033 336.239 258.008 372.039 229.04 386.023C228.813 386.138 228.587 386.244 228.357 386.356C228.35 386.359 228.341 386.359 228.338 386.362C224.869 387.972 221.045 389.278 216.851 390.195L216.867 390.208C208.499 392.032 199.082 392.194 188.746 390.696C187.392 390.498 186.133 391.434 185.939 392.792C185.741 394.146 186.68 395.405 188.037 395.599C192.927 396.312 197.639 396.663 202.149 396.663C202.462 396.663 202.772 396.66 203.081 396.657L250.556 559.842H64.6155L91.2323 295.501C91.3696 294.141 90.3794 292.924 89.0155 292.786C87.6485 292.649 86.4379 293.646 86.3005 295.006L77.5326 382.05C69.0139 384.596 41.2855 388.866 24.2639 379.21C19.4727 376.489 16.4479 371.455 16.17 365.955C12.551 294.61 67.6915 230.015 88.4342 224.036C121.672 214.447 131.718 255.504 131.718 255.504H165.391C182.498 240.042 193.818 228.041 216.545 222.832C243.267 216.322 285.66 219.264 304.333 237.588C310.098 243.431 313.64 251.074 313.286 259.344Z" fill="white"/>
</g>
<path d="M226.897 323.245C226.897 323.245 241.64 321.242 244.49 328.553C247.12 335.304 238.254 344.417 233.237 348.873C231.261 350.629 228.62 350.922 226.31 349.639C220.44 346.387 209.797 339.432 210.889 332.272C212.073 324.515 226.897 323.245 226.897 323.245Z" fill="#2F507F"/>
<path d="M150.25 329.341C154.838 328.989 158.178 323.761 157.711 317.663C157.244 311.565 153.146 306.906 148.559 307.257C143.972 307.609 140.632 312.837 141.099 318.935C141.566 325.033 145.663 329.692 150.25 329.341Z" fill="#2F507F"/>
<path d="M183.35 327.147C187.937 326.796 191.277 321.568 190.81 315.47C190.343 309.371 186.245 304.713 181.658 305.064C177.071 305.415 173.731 310.644 174.198 316.742C174.665 322.84 178.762 327.499 183.35 327.147Z" fill="#2F507F"/>
<path d="M136.117 352.079C136.117 352.079 150.65 370.005 179.404 365.37" stroke="#2F507F" stroke-width="3.23814" stroke-miterlimit="10" stroke-linecap="round"/>
<defs>
<filter id="filter0_ddd_154_2" x="-169.473" y="-0.0001297" width="656.854" height="867.886" filterUnits="userSpaceOnUse" color-interpolation-filters="sRGB">
<feFlood flood-opacity="0" result="BackgroundImageFix"/>
<feColorMatrix in="SourceAlpha" type="matrix" values="0 0 0 0 0 0 0 0 0 0 0 0 0 0 0 0 0 0 127 0" result="hardAlpha"/>
<feOffset dx="32.3057" dy="58.9104"/>
<feGaussianBlur stdDeviation="62.0935"/>
<feComposite in2="hardAlpha" operator="out"/>
<feColorMatrix type="matrix" values="0 0 0 0 0.462745 0 0 0 0 0.678431 0 0 0 0 1 0 0 0 0.36 0"/>
<feBlend mode="normal" in2="BackgroundImageFix" result="effect1_dropShadow_154_2"/>
<feColorMatrix in="SourceAlpha" type="matrix" values="0 0 0 0 0 0 0 0 0 0 0 0 0 0 0 0 0 0 127 0" result="hardAlpha"/>
<feOffset dx="32.3057" dy="-77.9138"/>
<feGaussianBlur stdDeviation="70.8825"/>
<feComposite in2="hardAlpha" operator="out"/>
<feColorMatrix type="matrix" values="0 0 0 0 0.462745 0 0 0 0 0.678431 0 0 0 0 1 0 0 0 0.2 0"/>
<feBlend mode="normal" in2="effect1_dropShadow_154_2" result="effect2_dropShadow_154_2"/>
<feColorMatrix in="SourceAlpha" type="matrix" values="0 0 0 0 0 0 0 0 0 0 0 0 0 0 0 0 0 0 127 0" result="hardAlpha"/>
<feOffset dx="-54.1596" dy="176.731"/>
<feGaussianBlur stdDeviation="65.6566"/>
<feComposite in2="hardAlpha" operator="out"/>
<feColorMatrix type="matrix" values="0 0 0 0 0.901961 0 0 0 0 0.917647 0 0 0 0 0.929412 0 0 0 1 0"/>
<feBlend mode="normal" in2="effect2_dropShadow_154_2" result="effect3_dropShadow_154_2"/>
<feBlend mode="normal" in="SourceGraphic" in2="effect3_dropShadow_154_2" result="shape"/>
</filter>
<linearGradient id="paint0_linear_154_2" x1="430.656" y1="197.23" x2="24.3134" y2="371.774" gradientUnits="userSpaceOnUse">
<stop stop-color="#CDD6DE"/>
<stop offset="1" stop-color="#7FB5F7"/>
</linearGradient>
</defs>
</svg>
